<svg xmlns="http://www.w3.org/2000/svg" viewBox="0 0 495 495"><path d="M330 0v70c10.62 0 20.79 1.954 30.179 5.512L412.29 23.4l44.044 12.524-62.643 62.643c13.502 15.111 21.724 35.035 21.724 56.847 0 14.551-3.798 28.913-10.84 41.56L495 287.4V46.92L330 0zM330 382.256v28.001l52.852 52.852L495 495V343.968l-63.356-63.356zM330 325.688l73.36-73.36-23.028-23.028L330 292.581z" fill="#ffcd00"/><path fill="#ffda44" d="M316 396.257l14 14v-28.001zM244.06 380.885l-79.07 79.071V495l154.109-43.82-3.694 1.05zM272.266 219.993l-66.265 66.265 81.715 81.714L330 325.688v-33.107zM204.107 231.584l-32.039-32.039-7.078 7.079V270.7zM215.776 352.601l-38.059-38.059-12.727 12.727v76.119zM164.99 98.084v37.814l67.401 67.401 17.743-17.743c-3.627-9.595-5.549-19.819-5.549-30.141C244.585 108.313 282.898 70 330 70V0L191.048 39.51l45.435-12.919-71.493 71.493z"/><path fill="#ffcd00" d="M164.99 206.624L0 371.615v64.075L164.99 270.7zM164.99 327.269L34.397 457.862l59.265 16.854 71.328-71.328zM117.799 145.276L0 263.074v51.973l143.784-143.786zM137.705 487.241l-8.054-2.291L164.99 495v-35.044zM146.083 116.991l18.907 18.908V98.084zM0 0v206.506L160.782 45.723z"/><path d="M397.019 208.32l-16.687 20.98 23.028 23.028-115.644 115.644-81.715-81.715 66.265-66.265-9.253-11.633c-5.47-6.916-9.79-14.633-12.879-22.803L232.391 203.3l-86.308-86.308 18.907-18.907 71.493-71.493-45.435 12.918-26.058 7.41-4.208-1.197L0 206.506v56.568l117.799-117.799 25.985 25.985L0 315.047v56.569l164.99-164.992 7.078-7.078 32.039 32.039L0 435.69v12.39l34.397 9.782L164.99 327.269l12.727-12.727 38.059 38.059-50.786 50.786-71.328 71.328 35.988 10.234 8.055 2.291 27.285-27.285 79.07-79.071 71.345 71.344 3.694-1.05 10.901-3.1 52.853 15.029L316 396.257l115.644-115.644L495 343.968V287.4l-90.425-90.425a84.914 84.914 0 0 1-7.556 11.345zM393.691 98.568l62.643-62.643L412.29 23.4l-52.111 52.111c12.965 4.914 24.433 12.895 33.512 23.057z" fill="#ffe477"/><path d="M330 123.573c17.553 0 31.842 14.281 31.842 31.842 0 17.553-14.289 31.842-31.842 31.842v105.324l50.332-63.281 16.687-20.98a84.658 84.658 0 0 0 7.556-11.345c7.042-12.647 10.84-27.008 10.84-41.56 0-21.813-8.222-41.736-21.724-56.847-9.079-10.161-20.547-18.143-33.512-23.056A84.985 84.985 0 0 0 330 70v53.573z" fill="#cd2a00"/><path d="M361.842 155.415c0-17.561-14.289-31.842-31.842-31.842v63.683c17.553.001 31.842-14.288 31.842-31.841z" fill="#d8d7da"/><path d="M244.585 155.415c0 10.322 1.922 20.546 5.549 30.141 3.089 8.171 7.409 15.887 12.879 22.803l9.253 11.633L330 292.581V187.257c-17.561 0-31.842-14.289-31.842-31.842 0-17.561 14.281-31.842 31.842-31.842V70c-47.102 0-85.415 38.313-85.415 85.415z" fill="#ff3501"/><path d="M330 123.573c-17.561 0-31.842 14.281-31.842 31.842 0 17.553 14.281 31.842 31.842 31.842v-63.684z" fill="#fff"/></svg>